<?xml version="1.0" standalone="no"?>
<!DOCTYPE svg PUBLIC "-//W3C//DTD SVG 20010904//EN"
 "http://www.w3.org/TR/2001/REC-SVG-20010904/DTD/svg10.dtd">
<svg version="1.0" xmlns="http://www.w3.org/2000/svg"
 width="640.000000pt" height="640.000000pt" viewBox="0 0 640.000000 640.000000"
 preserveAspectRatio="xMidYMid meet">
<metadata>
Created by potrace 1.14, written by Peter Selinger 2001-2017
</metadata>
<g transform="translate(0.000000,640.000000) scale(0.100000,-0.100000)"
fill="#000000" stroke="none">
<path d="M2940 5624 c-195 -24 -443 -86 -616 -153 -272 -106 -508 -250 -729
-444 -434 -382 -706 -874 -801 -1452 -31 -185 -33 -546 -4 -728 91 -581 369
-1091 796 -1466 352 -309 714 -486 1184 -578 127 -25 153 -27 425 -27 261 -1
302 1 410 22 477 90 883 286 1211 584 38 34 80 71 92 83 33 28 189 208 243
280 252 335 421 760 469 1180 13 116 13 434 0 550 -67 589 -357 1149 -795
1534 -203 179 -320 259 -537 367 -222 111 -413 174 -678 225 -96 18 -158 22
-375 24 -143 2 -276 1 -295 -1z m190 -249 l0 -85 70 0 70 0 0 86 0 87 103 -7
c271 -17 552 -92 815 -218 l83 -39 -42 -75 c-22 -42 -39 -77 -38 -79 7 -6 110
-65 114 -65 2 0 20 29 40 65 20 36 41 67 46 71 24 14 264 -171 409 -316 144
-143 331 -385 316 -408 -3 -6 -36 -27 -72 -47 -36 -20 -64 -40 -62 -43 22 -48
60 -112 66 -112 4 0 38 18 76 40 53 31 71 38 78 28 31 -46 102 -209 145 -333
56 -164 97 -372 109 -554 l7 -101 -86 0 -87 0 0 -70 0 -70 87 0 86 0 -7 -101
c-16 -244 -70 -471 -171 -714 -30 -73 -78 -170 -90 -183 -1 -1 -33 16 -71 38
-38 22 -71 40 -75 40 -5 0 -53 -80 -67 -112 -2 -3 26 -23 62 -43 36 -20 68
-41 72 -46 11 -19 -115 -192 -254 -347 -130 -144 -443 -395 -471 -378 -5 4
-26 35 -46 71 -20 36 -38 65 -40 65 -4 0 -107 -59 -114 -65 -1 -2 15 -37 38
-78 l41 -75 -72 -36 c-264 -129 -543 -204 -827 -222 l-101 -7 0 86 0 87 -70 0
-70 0 0 -87 0 -86 -101 7 c-282 18 -565 94 -827 222 l-72 36 41 75 c23 41 39
76 38 78 -7 6 -110 65 -114 65 -2 0 -20 -29 -40 -65 -20 -36 -41 -67 -46 -71
-24 -15 -264 171 -409 316 -145 145 -331 385 -316 409 4 5 36 26 72 46 36 20
64 40 62 43 -14 32 -62 112 -67 112 -4 0 -37 -18 -75 -40 -83 -49 -73 -58
-155 135 -109 258 -161 470 -177 724 l-7 101 86 0 87 0 0 70 0 70 -87 0 -86 0
7 101 c17 259 73 484 185 744 74 170 64 163 147 115 38 -22 71 -40 75 -40 5 0
53 80 67 112 2 3 -26 23 -62 43 -36 20 -68 41 -72 46 -7 12 76 135 160 239 78
97 230 249 326 326 86 70 219 164 231 164 5 0 27 -32 50 -70 23 -39 44 -69 48
-68 47 23 111 60 111 64 0 4 -18 39 -40 78 l-39 72 28 17 c45 27 254 114 328
137 208 66 415 104 581 108 l62 2 0 -85z"/>
<path d="M3140 4402 l-50 -48 0 -458 0 -458 -52 -46 c-65 -59 -87 -108 -88
-193 0 -50 6 -77 26 -118 l26 -52 -213 -210 c-467 -459 -648 -643 -643 -651 3
-5 1 -7 -5 -6 -5 2 -38 -24 -71 -56 -56 -54 -80 -89 -80 -117 0 -12 42 -1 51
13 3 5 9 9 13 8 15 -3 67 50 60 61 -4 7 -3 9 3 6 14 -9 136 110 128 123 -3 5
0 7 7 5 17 -7 62 40 54 54 -4 6 -1 9 6 6 8 -3 91 72 201 182 103 104 239 239
302 302 63 62 112 118 108 124 -3 5 -1 7 4 4 13 -8 85 61 78 74 -3 5 1 6 9 3
8 -3 20 3 27 14 12 19 13 19 53 1 55 -25 157 -25 211 0 22 10 61 41 87 69 l46
52 695 0 694 0 47 50 c25 27 46 55 46 62 0 8 -22 35 -48 61 l-48 47 -691 0
-691 0 -66 66 -66 66 0 458 0 458 -51 46 c-28 25 -55 46 -60 46 -5 0 -32 -22
-59 -48z m-47 -1097 c-3 -9 -8 -14 -10 -11 -3 3 -2 9 2 15 9 16 15 13 8 -4z
m221 -215 c-6 -6 -10 -3 -10 10 0 13 4 16 10 10 7 -7 7 -13 0 -20z"/>
</g>
</svg>
